# xmcd
#
# Track frame offsets:
#	225
#	25079
#	54866
#	60976
#	86106
#	100746
#	123241
#	140644
#	158434
#	181304
#	199484
#	238359
#
# Disc length: 3308 seconds
#
# Revision: 13
# Processed by: cddbd v1.5.2PL0 Copyright (c) Steve Scherf et al.
# Submitted via: audiograbber 1.83.01
#
DISCID=9d0ce90c
DTITLE=Genesis - Duke - Boxset 1976-1982 (SACD)
DYEAR=2007
DGENRE=Rock
TTITLE0=Behind The Lines
TTITLE1=Duchess
TTITLE2=Guide Vocal
TTITLE3=Man Of Our Times
TTITLE4=Misunderstanding
TTITLE5=Heathaze
TTITLE6=Turn It On Again
TTITLE7=Alone Tonight
TTITLE8=Cul-De-Sac
TTITLE9=Please Don't Ask
TTITLE10=Duke's Travels
TTITLE11=Duke's End
EXTD=
EXTT0=
EXTT1=
EXTT2=
EXTT3=
EXTT4=
EXTT5=
EXTT6=
EXTT7=
EXTT8=
EXTT9=
EXTT10=
EXTT11=
PLAYORDER=
